<svg viewBox="0 0 24 24" xmlns="http://www.w3.org/2000/svg" xmlns:xlink="http://www.w3.org/1999/xlink" width="24.000000" height="24.000000" fill="none">
	<rect id="Icon-Google" width="24.000000" height="24.000000" x="0.000000" y="0.000000" fill="rgb(255,255,255)" fill-opacity="0" />
	<path id="Vector" d="M23.766 12.2764C23.766 11.4607 23.6999 10.6406 23.5588 9.83807L12.24 9.83807L12.24 14.4591L18.7217 14.4591C18.4528 15.9494 17.5885 17.2678 16.323 18.1056L16.323 21.1039L20.19 21.1039C22.4608 19.0139 23.766 15.9274 23.766 12.2764Z" fill="rgb(66,133,244)" fill-rule="nonzero" />
	<path id="Vector" d="M12.2401 24.0008C15.4766 24.0008 18.2059 22.9382 20.1945 21.1039L16.3276 18.1055C15.2517 18.8375 13.8627 19.252 12.2445 19.252C9.11388 19.252 6.45946 17.1399 5.50705 14.3003L1.5166 14.3003L1.5166 17.3912C3.55371 21.4434 7.7029 24.0008 12.2401 24.0008Z" fill="rgb(52,168,83)" fill-rule="nonzero" />
	<path id="Vector" d="M5.50253 14.3003C4.99987 12.8099 4.99987 11.1961 5.50253 9.70575L5.50253 6.61481L1.51649 6.61481C-0.18551 10.0056 -0.18551 14.0004 1.51649 17.3912L5.50253 14.3003Z" fill="rgb(251,188,4)" fill-rule="nonzero" />
	<path id="Vector" d="M12.2401 4.74966C13.9509 4.7232 15.6044 5.36697 16.8434 6.54867L20.2695 3.12262C18.1001 1.0855 15.2208 -0.034466 12.2401 0.000808666C7.7029 0.000808666 3.55371 2.55822 1.5166 6.61481L5.50264 9.70575C6.45064 6.86173 9.10947 4.74966 12.2401 4.74966Z" fill="rgb(234,67,53)" fill-rule="nonzero" />
</svg>
