<svg viewBox="0 0 24 24" xmlns="http://www.w3.org/2000/svg" xmlns:xlink="http://www.w3.org/1999/xlink" width="24.000000" height="24.000000" fill="none">
	<rect id="icon-instagram" width="24.000000" height="24.000000" x="0.000000" y="0.000000" />
	<g id="Group">
		<path id="Vector" d="M7 3C5.93913 3 4.92172 3.42143 4.17157 4.17157C3.42143 4.92172 3 5.93913 3 7L3 17C3 18.0609 3.42143 19.0783 4.17157 19.8284C4.92172 20.5786 5.93913 21 7 21L17 21C18.0609 21 19.0783 20.5786 19.8284 19.8284C20.5786 19.0783 21 18.0609 21 17L21 7C21 5.93913 20.5786 4.92172 19.8284 4.17157C19.0783 3.42143 18.0609 3 17 3L7 3Z" fill-rule="nonzero" stroke="rgb(255,255,255)" stroke-linejoin="round" stroke-width="1.5" />
		<path id="Vector" d="M14.8284 14.8284C15.5786 14.0783 16 13.0609 16 12C16 10.9391 15.5786 9.92172 14.8284 9.17157C14.0783 8.42143 13.0609 8 12 8C10.9391 8 9.92172 8.42143 9.17157 9.17157C8.42143 9.92172 8 10.9391 8 12C8 13.0609 8.42143 14.0783 9.17157 14.8284C9.92172 15.5786 10.9391 16 12 16C13.0609 16 14.0783 15.5786 14.8284 14.8284Z" fill-rule="nonzero" stroke="rgb(255,255,255)" stroke-linejoin="round" stroke-width="1.5" />
		<path id="Vector" d="M17.5 7.5C17.7652 7.5 18.0196 7.39464 18.2071 7.20711C18.3946 7.01957 18.5 6.76522 18.5 6.5C18.5 6.23478 18.3946 5.98043 18.2071 5.79289C18.0196 5.60536 17.7652 5.5 17.5 5.5C17.2348 5.5 16.9804 5.60536 16.7929 5.79289C16.6054 5.98043 16.5 6.23478 16.5 6.5C16.5 6.76522 16.6054 7.01957 16.7929 7.20711C16.9804 7.39464 17.2348 7.5 17.5 7.5Z" fill="rgb(255,255,255)" fill-rule="nonzero" />
	</g>
</svg>
