<svg viewBox="0 0 24 24" xmlns="http://www.w3.org/2000/svg" xmlns:xlink="http://www.w3.org/1999/xlink" width="24.000000" height="24.000000" fill="none">
	<rect id="Icon-Facebook" width="24.000000" height="24.000000" x="0.000000" y="0.000000" />
	<path id="Vector" d="M13 10L17.5 10L17 12L13 12L13 21L11 21L11 12L7 12L7 10L11 10L11 8.128C11 6.345 11.186 5.698 11.534 5.046C11.875 4.40181 12.4018 3.87501 13.046 3.534C13.698 3.186 14.345 3 16.128 3C16.65 3 17.108 3.05 17.5 3.15L17.5 5L16.128 5C14.804 5 14.401 5.078 13.99 5.298C13.686 5.46 13.46 5.686 13.298 5.99C13.078 6.401 13 6.804 13 8.128L13 10Z" fill="rgb(255,255,255)" fill-rule="nonzero" />
</svg>
