<svg viewBox="0 0 24 24" xmlns="http://www.w3.org/2000/svg" xmlns:xlink="http://www.w3.org/1999/xlink" width="24.000000" height="24.000000" fill="none">
	<rect id="Icon-Twitter" width="24.000000" height="24.000000" x="0.000000" y="0.000000" fill="rgb(255,255,255)" fill-opacity="0" />
	<g id="Group">
		<path id="Vector" d="M-5 0L19 0L19 24L-5 24L-5 0Z" fill-rule="nonzero" />
		<path id="Vector" d="M15.905 6.00129C15.145 6.00116 14.4153 6.29941 13.8729 6.83185C13.3305 7.3643 13.0189 8.08838 13.005 8.84829L12.977 10.4233C12.9754 10.5079 12.9559 10.5911 12.9198 10.6676C12.8837 10.7441 12.8319 10.8121 12.7676 10.8672C12.7034 10.9222 12.6283 10.9631 12.5472 10.987C12.4661 11.011 12.3808 11.0176 12.297 11.0063L10.736 10.7943C8.682 10.5143 6.714 9.56829 4.826 7.99529C4.228 11.3053 5.396 13.5983 8.209 15.3673L9.956 16.4653C10.039 16.5175 10.108 16.5892 10.1568 16.6741C10.2057 16.7591 10.233 16.8548 10.2364 16.9528C10.2397 17.0507 10.219 17.1481 10.1761 17.2362C10.1331 17.3243 10.0692 17.4006 9.99 17.4583L8.398 18.6213C9.345 18.6803 10.244 18.6383 10.99 18.4903C15.708 17.5483 18.845 13.9983 18.845 8.14229C18.845 7.66429 17.833 6.00129 15.905 6.00129ZM11.005 8.81129C11.0225 7.84734 11.3239 6.90996 11.8716 6.11651C12.4192 5.32306 13.1888 4.70881 14.0839 4.35065C14.979 3.9925 15.9599 3.90637 16.9037 4.10303C17.8476 4.2997 18.7124 4.77043 19.39 5.45629C20.101 5.45129 20.706 5.63129 22.059 4.81129C21.724 6.45129 21.559 7.16329 20.845 8.14229C20.845 15.7843 16.148 19.5003 11.382 20.4513C8.114 21.1033 3.362 20.0323 2 18.6103C2.694 18.5563 5.514 18.2533 7.144 17.0603C5.765 16.1513 0.276 12.9213 3.883 4.23729C5.576 6.21429 7.293 7.56029 9.033 8.27429C10.191 8.74929 10.475 8.73929 11.006 8.81229L11.005 8.81129Z" fill="rgb(255,255,255)" fill-rule="nonzero" />
		<path id="Vector" d="M19.39 5.45629C18.7124 4.77043 17.8476 4.2997 16.9037 4.10303C15.9599 3.90637 14.979 3.9925 14.0839 4.35065C13.1888 4.70881 12.4192 5.32306 11.8716 6.11651C11.3618 6.85499 11.0654 7.71814 11.0127 8.61136C11.0088 8.67785 11.0062 8.7445 11.005 8.81129L11.006 8.81229C10.9357 8.80262 10.8697 8.79441 10.8055 8.78634C10.3845 8.73343 10.0377 8.68639 9.033 8.27429C7.34316 7.58087 5.67501 6.29136 4.02947 4.40668C3.98063 4.35074 3.9318 4.29428 3.883 4.23729C3.85408 4.30692 3.82574 4.37621 3.79798 4.44514C0.498931 12.6373 5.36372 15.8995 6.96447 16.943C6.97909 16.9525 6.99344 16.9619 7.00751 16.9711C7.05654 17.003 7.10216 17.0327 7.144 17.0603C7.08643 17.1024 7.02737 17.1434 6.96698 17.1834C5.48529 18.1634 3.19802 18.4921 2.26268 18.5866C2.15673 18.5973 2.06812 18.605 2 18.6103C2.05936 18.6723 2.12516 18.7336 2.197 18.7941C3.7734 20.1224 8.25643 21.0749 11.382 20.4513C16.148 19.5003 20.845 15.7843 20.845 8.14229C21.5195 7.2175 21.704 6.53096 22.0048 5.07541C22.0224 4.99008 22.0404 4.90211 22.059 4.81129C21.9792 4.85967 21.9019 4.90458 21.8271 4.94624C20.8312 5.50099 20.2658 5.48167 19.7169 5.46291C19.6083 5.4592 19.5005 5.45551 19.39 5.45629ZM21.7739 5.20175C21.3975 5.39788 21.047 5.53062 20.7225 5.59997C20.5474 5.6374 20.3661 5.6597 20.1787 5.66685C20.0686 5.67106 19.9124 5.66971 19.7101 5.66279C19.5685 5.65795 19.4623 5.65578 19.3914 5.65628L19.307 5.65687L19.2477 5.59685C19.0852 5.43236 18.9126 5.28136 18.7298 5.14385C18.547 5.00638 18.3541 4.88239 18.1511 4.77188C17.948 4.66134 17.7391 4.56665 17.5244 4.4878C17.3097 4.40897 17.0892 4.34598 16.8629 4.29883C16.6366 4.25166 16.4092 4.22134 16.1809 4.20788C15.9526 4.19442 15.7233 4.1978 15.4931 4.21802C15.2628 4.23824 15.0364 4.27488 14.8139 4.32793C14.5914 4.38099 14.3729 4.45046 14.1582 4.53634C13.9436 4.6222 13.7375 4.72263 13.5399 4.83764C13.3422 4.95272 13.153 5.08239 12.9722 5.22666C12.7916 5.37086 12.6232 5.52656 12.4672 5.69378C12.3112 5.86104 12.1675 6.03982 12.0362 6.23012C11.9048 6.42041 11.7886 6.61815 11.6875 6.82336C11.5865 7.02851 11.5006 7.24112 11.4298 7.46118C11.3591 7.68134 11.3049 7.90427 11.2674 8.12996C11.2345 8.32805 11.2145 8.52827 11.2072 8.73062L11.5684 9.09149L10.9788 9.01042C10.9365 9.00461 10.8756 8.99672 10.7962 8.98674C10.5163 8.9516 10.2834 8.90971 10.0973 8.86108C9.8018 8.78383 9.42172 8.64991 8.95708 8.45931C7.26105 7.76336 5.59058 6.48174 3.94567 4.61445C3.22544 6.4291 2.86864 8.10259 2.87528 9.63494C2.88034 10.8032 3.09668 11.8798 3.5243 12.8646C3.58644 13.0078 3.65305 13.1489 3.72411 13.2882C4.15542 14.1333 4.74776 14.8996 5.50112 15.5872C5.77507 15.8372 6.0738 16.0796 6.3973 16.3143C6.58216 16.4485 6.82195 16.6115 7.11666 16.8035C7.18003 16.8447 7.22584 16.8747 7.25407 16.8933L7.49437 17.0517L7.26212 17.2217C6.54302 17.748 5.54442 18.1598 4.26632 18.4572C3.82583 18.5597 3.36881 18.6443 2.89524 18.7111C2.75214 18.7313 2.61395 18.7491 2.4807 18.7644C2.78095 18.9871 3.17361 19.2007 3.65868 19.4053C4.34359 19.6941 5.12957 19.9299 6.01661 20.1126C6.92537 20.2999 7.83169 20.4086 8.73558 20.4388C9.69894 20.4709 10.568 20.4097 11.3429 20.2552C12.4548 20.0333 13.4984 19.6761 14.4738 19.1837C14.5752 19.1325 14.676 19.0798 14.776 19.0256C15.6373 18.5591 16.4113 18.0004 17.098 17.3496C17.3252 17.1343 17.5428 16.909 17.7509 16.6735C17.9185 16.4838 18.0789 16.2886 18.2321 16.0879C18.9128 15.1965 19.4516 14.1966 19.8483 13.0884C20.3794 11.605 20.645 9.95625 20.645 8.14229L20.645 8.0771L20.6834 8.02444C20.8545 7.78983 20.9973 7.56377 21.1118 7.34626C21.2235 7.13417 21.3211 6.90545 21.4048 6.6601C21.4816 6.43517 21.5579 6.16182 21.6337 5.84005C21.6706 5.68355 21.7174 5.47079 21.7739 5.20175ZM14.1998 6.3114C14.0334 6.42096 13.8777 6.54687 13.7328 6.68913C13.5878 6.83144 13.4591 6.98481 13.3464 7.14925C13.2338 7.31367 13.1374 7.48915 13.0571 7.6757C12.9768 7.86224 12.9156 8.0529 12.8736 8.24769C12.8316 8.44254 12.8087 8.64152 12.805 8.84463L12.777 10.4197C12.7765 10.4469 12.7733 10.4735 12.7675 10.4995C12.7611 10.5278 12.7516 10.5554 12.7389 10.5823C12.7267 10.6081 12.7122 10.6321 12.6953 10.6542C12.6784 10.6764 12.6591 10.6968 12.6375 10.7153C12.6158 10.7339 12.5928 10.7498 12.5683 10.7631C12.5438 10.7765 12.5179 10.7872 12.4905 10.7953C12.4632 10.8033 12.4356 10.8084 12.4078 10.8106C12.38 10.8127 12.352 10.8119 12.3237 10.8081L10.7629 10.5961C8.76795 10.3242 6.83165 9.406 4.95402 7.84163L4.69023 7.62185L4.62919 7.95973C4.32669 9.63409 4.46944 11.0956 5.05743 12.3444C5.62707 13.5541 6.6421 14.6182 8.10253 15.5366L9.84957 16.6346C9.8777 16.6523 9.90294 16.6728 9.92528 16.696C9.94756 16.7192 9.96696 16.7451 9.98348 16.7739C10 16.8026 10.0127 16.8325 10.0216 16.8634C10.0304 16.8944 10.0354 16.9265 10.0365 16.9596C10.0376 16.9928 10.0349 17.0251 10.0282 17.0566C10.0215 17.0881 10.0108 17.1187 9.99631 17.1486C9.98178 17.1784 9.96417 17.2056 9.9435 17.2303C9.92282 17.255 9.89907 17.2771 9.87225 17.2966L7.83285 18.7865L8.38556 18.8209C9.38286 18.883 10.264 18.8382 11.0289 18.6865C12.2386 18.4449 13.3317 18.0403 14.3083 17.4724C14.9441 17.1027 15.5196 16.6702 16.0347 16.1748C16.3233 15.8973 16.5929 15.6001 16.8436 15.2831C17.5585 14.3792 18.1013 13.3373 18.4719 12.1571C18.854 10.9408 19.045 9.60252 19.045 8.14228C19.045 7.97404 18.9737 7.76273 18.8312 7.50835C18.6791 7.23686 18.481 6.98356 18.2367 6.74844C18.0188 6.53867 17.7821 6.36249 17.5266 6.2199C17.4397 6.17136 17.3506 6.12672 17.2593 6.08597C17.1091 6.01894 16.9557 5.96375 16.799 5.92039C16.512 5.84099 16.214 5.80129 15.905 5.80129C15.7021 5.80125 15.5029 5.82041 15.3075 5.85876C15.1117 5.89716 14.9198 5.95482 14.7317 6.03172C14.5436 6.10858 14.3663 6.20181 14.1998 6.3114ZM13.8729 6.83185C14.4153 6.29941 15.145 6.00116 15.905 6.00129C17.833 6.00129 18.845 7.66429 18.845 8.14229C18.845 13.9983 15.708 17.5483 10.99 18.4903C10.3278 18.6217 9.54498 18.6695 8.71508 18.6373C8.61009 18.6333 8.50435 18.6279 8.398 18.6213L8.65335 18.4347L9.99 17.4583C10.0692 17.4006 10.1331 17.3243 10.1761 17.2362C10.219 17.1481 10.2397 17.0507 10.2364 16.9528C10.233 16.8548 10.2057 16.7591 10.1568 16.6741C10.108 16.5892 10.039 16.5175 9.956 16.4653L8.209 15.3673C5.46095 13.6391 4.28281 11.4109 4.7874 8.22293C4.79933 8.14759 4.81219 8.07171 4.826 7.99529C4.88509 8.04452 4.94426 8.09313 5.0035 8.14114C6.83727 9.62685 8.74629 10.5231 10.736 10.7943L12.297 11.0063C12.3808 11.0176 12.4661 11.011 12.5472 10.987C12.6283 10.9631 12.7034 10.9222 12.7676 10.8672C12.8319 10.8121 12.8837 10.7441 12.9198 10.6676C12.9559 10.5911 12.9754 10.5079 12.977 10.4233L13.005 8.84829C13.0189 8.08838 13.3305 7.3643 13.8729 6.83185Z" fill="rgb(0,0,0)" fill-rule="evenodd" />
	</g>
</svg>
